<svg width="269" height="240" viewBox="0 0 269 240" fill="none" xmlns="http://www.w3.org/2000/svg">
<path d="M268 150L262.348 155.621" stroke="#04D361" stroke-width="2" stroke-miterlimit="10" stroke-linecap="round" stroke-linejoin="round"/>
<path d="M268 155.621L262.348 150" stroke="#04D361" stroke-width="2" stroke-miterlimit="10" stroke-linecap="round" stroke-linejoin="round"/>
<path d="M9.78675 150.619L1.7936 150.619" stroke="#04D361" stroke-width="2" stroke-miterlimit="10" stroke-linecap="round" stroke-linejoin="round"/>
<path d="M5.79108 154.603L5.79108 146.645" stroke="#04D361" stroke-width="2" stroke-miterlimit="10" stroke-linecap="round" stroke-linejoin="round"/>
<path d="M190.205 23.6612C187.529 23.6612 185.348 21.5019 185.348 18.8306C185.348 16.1687 187.519 14 190.205 14C192.882 14 195.063 16.1593 195.063 18.8306C195.054 21.5019 192.882 23.6612 190.205 23.6612Z" stroke="#04D361" stroke-width="2" stroke-miterlimit="10" stroke-linecap="round" stroke-linejoin="round"/>
<path d="M95.2054 238.661C92.5285 238.661 90.3477 236.502 90.3477 233.831C90.3477 231.169 92.5191 229 95.2054 229C97.8822 229 100.063 231.159 100.063 233.831C100.054 236.502 97.8822 238.661 95.2054 238.661Z" stroke="#04D361" stroke-width="2" stroke-miterlimit="10" stroke-linecap="round" stroke-linejoin="round"/>
<path d="M55.3888 1.74976C55.3888 2.71599 56.1765 3.49927 57.1481 3.49927C58.1198 3.49927 58.9074 2.71599 58.9074 1.74976C58.9074 0.783529 58.1198 0.000244106 57.1481 0.000244064C56.1765 0.000244021 55.3888 0.783528 55.3888 1.74976Z" fill="#9871F5"/>
<path d="M55.3888 13.9703C55.3888 14.9366 56.1765 15.7199 57.1481 15.7199C58.1198 15.7199 58.9074 14.9366 58.9074 13.9703C58.9074 13.0041 58.1198 12.2208 57.1481 12.2208C56.1765 12.2208 55.3888 13.0041 55.3888 13.9703Z" fill="#9871F5"/>
<path d="M55.3888 26.1799C55.3888 27.1462 56.1765 27.9294 57.1481 27.9294C58.1198 27.9294 58.9074 27.1462 58.9074 26.1799C58.9074 25.2137 58.1198 24.4304 57.1481 24.4304C56.1765 24.4304 55.3888 25.2137 55.3888 26.1799Z" fill="#9871F5"/>
<path d="M55.3888 38.4001C55.3888 39.3664 56.1765 40.1497 57.1481 40.1497C58.1198 40.1497 58.9074 39.3664 58.9074 38.4001C58.9074 37.4339 58.1198 36.6506 57.1481 36.6506C56.1765 36.6506 55.3888 37.4339 55.3888 38.4001Z" fill="#9871F5"/>
<path d="M55.3888 50.6107C55.3888 51.5769 56.1765 52.3602 57.1481 52.3602C58.1198 52.3602 58.9074 51.5769 58.9074 50.6107C58.9074 49.6445 58.1198 48.8612 57.1481 48.8612C56.1765 48.8612 55.3888 49.6445 55.3888 50.6107Z" fill="#9871F5"/>
<path d="M43.1088 1.74951C43.1088 2.71574 43.8965 3.49903 44.8681 3.49903C45.8398 3.49903 46.6274 2.71574 46.6274 1.74951C46.6274 0.783284 45.8398 -3.44304e-08 44.8681 -7.69023e-08C43.8965 -1.19374e-07 43.1088 0.783284 43.1088 1.74951Z" fill="#9871F5"/>
<path d="M43.1088 13.9702C43.1088 14.9364 43.8965 15.7197 44.8681 15.7197C45.8398 15.7197 46.6274 14.9364 46.6274 13.9702C46.6274 13.004 45.8398 12.2207 44.8681 12.2207C43.8965 12.2207 43.1088 13.004 43.1088 13.9702Z" fill="#9871F5"/>
<path d="M43.1088 26.1802C43.1088 27.1464 43.8965 27.9297 44.8681 27.9297C45.8398 27.9297 46.6274 27.1464 46.6274 26.1802C46.6274 25.2139 45.8398 24.4307 44.8681 24.4307C43.8965 24.4307 43.1088 25.2139 43.1088 26.1802Z" fill="#9871F5"/>
<path d="M43.1088 38.4004C43.1088 39.3666 43.8965 40.1499 44.8681 40.1499C45.8398 40.1499 46.6274 39.3666 46.6274 38.4004C46.6274 37.4342 45.8398 36.6509 44.8681 36.6509C43.8965 36.6509 43.1088 37.4342 43.1088 38.4004Z" fill="#9871F5"/>
<path d="M43.1088 50.6108C43.1088 51.5771 43.8965 52.3603 44.8681 52.3603C45.8398 52.3603 46.6274 51.5771 46.6274 50.6108C46.6274 49.6446 45.8398 48.8613 44.8681 48.8613C43.8965 48.8613 43.1088 49.6446 43.1088 50.6108Z" fill="#9871F5"/>
<path d="M30.8195 1.74951C30.8195 2.71574 31.6072 3.49903 32.5789 3.49903C33.5505 3.49903 34.3382 2.71574 34.3382 1.74951C34.3382 0.783284 33.5505 -3.44305e-08 32.5789 -7.69024e-08C31.6072 -1.19374e-07 30.8195 0.783284 30.8195 1.74951Z" fill="#9871F5"/>
<path d="M30.8195 13.9702C30.8195 14.9364 31.6072 15.7197 32.5789 15.7197C33.5505 15.7197 34.3382 14.9364 34.3382 13.9702C34.3382 13.004 33.5505 12.2207 32.5789 12.2207C31.6072 12.2207 30.8195 13.004 30.8195 13.9702Z" fill="#9871F5"/>
<path d="M30.8195 26.1802C30.8195 27.1464 31.6072 27.9297 32.5789 27.9297C33.5505 27.9297 34.3382 27.1464 34.3382 26.1802C34.3382 25.2139 33.5505 24.4307 32.5789 24.4307C31.6072 24.4307 30.8195 25.2139 30.8195 26.1802Z" fill="#9871F5"/>
<path d="M30.8196 38.4004C30.8196 39.3666 31.6072 40.1499 32.5789 40.1499C33.5505 40.1499 34.3382 39.3666 34.3382 38.4004C34.3382 37.4342 33.5505 36.6509 32.5789 36.6509C31.6072 36.6509 30.8196 37.4342 30.8196 38.4004Z" fill="#9871F5"/>
<path d="M30.8195 50.6108C30.8195 51.5771 31.6072 52.3603 32.5789 52.3603C33.5505 52.3603 34.3382 51.5771 34.3382 50.6108C34.3382 49.6446 33.5505 48.8613 32.5789 48.8613C31.6072 48.8613 30.8195 49.6446 30.8195 50.6108Z" fill="#9871F5"/>
<path d="M18.5398 1.74951C18.5398 2.71574 19.3274 3.49903 20.2991 3.49903C21.2707 3.49903 22.0584 2.71574 22.0584 1.74951C22.0584 0.783284 21.2707 -3.44305e-08 20.2991 -7.69025e-08C19.3274 -1.19374e-07 18.5398 0.783284 18.5398 1.74951Z" fill="#9871F5"/>
<path d="M18.5398 13.9702C18.5398 14.9364 19.3274 15.7197 20.2991 15.7197C21.2707 15.7197 22.0584 14.9364 22.0584 13.9702C22.0584 13.004 21.2707 12.2207 20.2991 12.2207C19.3275 12.2207 18.5398 13.004 18.5398 13.9702Z" fill="#9871F5"/>
<path d="M18.5398 26.1802C18.5398 27.1464 19.3274 27.9297 20.2991 27.9297C21.2707 27.9297 22.0584 27.1464 22.0584 26.1802C22.0584 25.2139 21.2707 24.4307 20.2991 24.4307C19.3275 24.4307 18.5398 25.2139 18.5398 26.1802Z" fill="#9871F5"/>
<path d="M18.5398 38.4004C18.5398 39.3666 19.3274 40.1499 20.2991 40.1499C21.2707 40.1499 22.0584 39.3666 22.0584 38.4004C22.0584 37.4342 21.2707 36.6509 20.2991 36.6509C19.3275 36.6509 18.5398 37.4342 18.5398 38.4004Z" fill="#9871F5"/>
<path d="M18.5398 50.6108C18.5398 51.5771 19.3275 52.3603 20.2991 52.3603C21.2707 52.3603 22.0584 51.5771 22.0584 50.6108C22.0584 49.6446 21.2707 48.8613 20.2991 48.8613C19.3275 48.8613 18.5398 49.6446 18.5398 50.6108Z" fill="#9871F5"/>
<path d="M249.829 208.75C249.829 209.716 250.617 210.499 251.588 210.499C252.56 210.499 253.348 209.716 253.348 208.75C253.348 207.783 252.56 207 251.588 207C250.617 207 249.829 207.783 249.829 208.75Z" fill="#9871F5"/>
<path d="M249.829 220.96C249.829 221.926 250.617 222.709 251.588 222.709C252.56 222.709 253.348 221.926 253.348 220.96C253.348 219.994 252.56 219.21 251.588 219.21C250.617 219.21 249.829 219.994 249.829 220.96Z" fill="#9871F5"/>
<path d="M249.829 233.18C249.829 234.146 250.617 234.929 251.588 234.929C252.56 234.929 253.348 234.146 253.348 233.18C253.348 232.213 252.56 231.43 251.588 231.43C250.617 231.43 249.829 232.213 249.829 233.18Z" fill="#9871F5"/>
<path d="M237.54 208.75C237.54 209.716 238.328 210.499 239.299 210.499C240.271 210.499 241.058 209.716 241.058 208.75C241.058 207.783 240.271 207 239.299 207C238.328 207 237.54 207.783 237.54 208.75Z" fill="#9871F5"/>
<path d="M237.54 220.96C237.54 221.926 238.327 222.709 239.299 222.709C240.271 222.709 241.058 221.926 241.058 220.96C241.058 219.994 240.271 219.21 239.299 219.21C238.327 219.21 237.54 219.994 237.54 220.96Z" fill="#9871F5"/>
<path d="M237.54 233.18C237.54 234.146 238.327 234.93 239.299 234.93C240.271 234.93 241.058 234.146 241.058 233.18C241.058 232.214 240.271 231.431 239.299 231.431C238.327 231.431 237.54 232.214 237.54 233.18Z" fill="#9871F5"/>
</svg>
